<svg id="Layer_1" data-name="Layer 1" xmlns="http://www.w3.org/2000/svg" viewBox="0 0 243.53 101.44"><defs><style>.cls-1{fill:#73afb6;}.cls-2{fill:#5c6f7c;}.cls-3{fill:#81bdb7;}.cls-4{opacity:0.8;}.cls-5{opacity:0.45;}.cls-6{opacity:0.65;}</style></defs><title>GLBH-Logo-MASTER_No Tagline</title><path class="cls-1" d="M54.85,107.93A10.36,10.36,0,0,0,48,105.28a11,11,0,0,0,0,21.9c5.13,0,8.86-3,9.11-7.7H49v-3.35h12.5c0,10-5.34,14.74-13.5,14.74a14.64,14.64,0,0,1,0-29.27,14.09,14.09,0,0,1,9.65,3.77Z" transform="translate(-33.57 -29.43)"/><path class="cls-1" d="M69.75,100.6v29.85H66V100.6h3.77Z" transform="translate(-33.57 -29.43)"/><path class="cls-1" d="M74.76,120.72a10.12,10.12,0,0,1,20.24,0A10.12,10.12,0,1,1,74.76,120.72Zm16.48,0a6.38,6.38,0,0,0-12.75,0A6.38,6.38,0,1,0,91.23,120.72Z" transform="translate(-33.57 -29.43)"/><path class="cls-1" d="M102.95,130.45H99.18V100.6h3.77V114c1.28-2.19,4-3.31,6.79-3.31,5.34,0,9.77,3.89,9.77,10.06a9.7,9.7,0,0,1-9.81,10.1c-2.69,0-5.46-1.2-6.75-3.39v3Zm6.46-3.27a6.19,6.19,0,0,0,6.25-6.46,6.07,6.07,0,0,0-6.25-6.33A6.4,6.4,0,1,0,109.41,127.18Z" transform="translate(-33.57 -29.43)"/><path class="cls-1" d="M139,127.47c-1.28,2.19-4.1,3.39-6.79,3.39a10.08,10.08,0,0,1,0-20.16c2.69,0,5.51,1.12,6.79,3.31v-2.9h3.73v19.33H139v-3Zm-6.46-13.08a6.1,6.1,0,0,0-6.29,6.33A6.36,6.36,0,1,0,132.55,114.39Z" transform="translate(-33.57 -29.43)"/><path class="cls-1" d="M152,100.6v29.85h-3.77V100.6H152Z" transform="translate(-33.57 -29.43)"/><path class="cls-2" d="M180.52,130.45h-3.89V118H162.85v12.42H159V101.92h3.85v12.59h13.79V101.92h3.89v28.52Z" transform="translate(-33.57 -29.43)"/><path class="cls-2" d="M205.32,122.21H189.63a6,6,0,0,0,6.25,5.26,6.26,6.26,0,0,0,5.55-3c1,0.41,2.19.83,3.23,1.24a9.6,9.6,0,0,1-8.9,5.13c-5.51,0-9.89-4-9.89-10.14a9.58,9.58,0,0,1,9.89-10c5.51,0,9.6,3.89,9.6,10C205.36,121.18,205.36,121.8,205.32,122.21Zm-3.69-2.94a5.68,5.68,0,0,0-5.88-5.17,5.86,5.86,0,0,0-6.13,5.17h12Z" transform="translate(-33.57 -29.43)"/><path class="cls-2" d="M225.48,127.47c-1.28,2.19-4.1,3.39-6.79,3.39a10.08,10.08,0,0,1,0-20.16c2.69,0,5.51,1.12,6.79,3.31v-2.9h3.73v19.33h-3.73v-3ZM219,114.39a6.1,6.1,0,0,0-6.29,6.33A6.35,6.35,0,1,0,219,114.39Z" transform="translate(-33.57 -29.43)"/><path class="cls-2" d="M239.26,100.6v29.85h-3.77V100.6h3.77Z" transform="translate(-33.57 -29.43)"/><path class="cls-2" d="M254.87,111.12v3.19h-4.1v16.15H247V114.3h-3.48v-3.19H247v-7.29h3.77v7.29h4.1Z" transform="translate(-33.57 -29.43)"/><path class="cls-2" d="M262.9,130.45h-3.77V100.6h3.77V114c1.16-2.32,4.26-3.31,6.38-3.31,4.84,0,7.87,3.15,7.82,8.57v11.18h-3.77V119.52c0-3.19-1.9-5.13-4.55-5.13s-5.88,1.49-5.88,5.63v10.43Z" transform="translate(-33.57 -29.43)"/><path class="cls-3" d="M168.32,30.52l0.36,0.06Z" transform="translate(-33.57 -29.43)"/><path class="cls-3" d="M169.74,30.79L170.88,31Z" transform="translate(-33.57 -29.43)"/><path class="cls-3" d="M180.73,33.94l0.2,0.08Z" transform="translate(-33.57 -29.43)"/><path class="cls-3" d="M176.52,32.5q-2.66-.82-5.36-1.41,2.71,0.6,5.36,1.43h0Z" transform="translate(-33.57 -29.43)"/><path class="cls-3" d="M188.49,37.45c-0.69-.37-1.38-0.71-2.08-1.05,0.7,0.34,1.39.69,2.07,1.06h0Z" transform="translate(-33.57 -29.43)"/><path class="cls-3" d="M182.64,34.7l1,0.42Z" transform="translate(-33.57 -29.43)"/><path class="cls-3" d="M184.54,35.52l1.64,0.77C185.63,36,185.09,35.77,184.54,35.52Z" transform="translate(-33.57 -29.43)"/><path class="cls-3" d="M186.18,36.29l0.23,0.11Z" transform="translate(-33.57 -29.43)"/><path class="cls-3" d="M183.62,35.12l0.92,0.4Z" transform="translate(-33.57 -29.43)"/><path class="cls-3" d="M180.93,34c0.57,0.22,1.15.45,1.72,0.68C182.08,34.47,181.51,34.24,180.93,34Z" transform="translate(-33.57 -29.43)"/><path class="cls-3" d="M176.52,32.49h0q2.13,0.65,4.21,1.44Q178.66,33.15,176.52,32.49Z" transform="translate(-33.57 -29.43)"/><path class="cls-3" d="M188.48,37.46h0c-0.68-.36-1.38-0.72-2.07-1.06l-0.23-.11-1.64-.77-0.92-.4-1-.42c-0.57-.24-1.14-0.46-1.72-0.68l-0.2-.08q-2.08-.79-4.21-1.44h0A69.73,69.73,0,0,1,188.48,37.46Z" transform="translate(-33.57 -29.43)"/><path class="cls-3" d="M162.89,29.75q-3.26-.32-6.51-0.33,3.27,0,6.51.34h0Z" transform="translate(-33.57 -29.43)"/><path class="cls-3" d="M154.33,29.45h0Z" transform="translate(-33.57 -29.43)"/><path class="cls-3" d="M152.27,29.54l0.33,0Z" transform="translate(-33.57 -29.43)"/><path class="cls-3" d="M149.95,29.7h0c0.77-.07,1.54-0.13,2.32-0.18C151.49,29.58,150.72,29.64,149.95,29.7Z" transform="translate(-33.57 -29.43)"/><path class="cls-3" d="M168.68,30.58l1.06,0.21Z" transform="translate(-33.57 -29.43)"/><path class="cls-3" d="M152.6,29.52l1.73-.07Z" transform="translate(-33.57 -29.43)"/><path class="cls-3" d="M155.47,29.44h0Z" transform="translate(-33.57 -29.43)"/><path class="cls-3" d="M170.88,31l0.28,0.06Z" transform="translate(-33.57 -29.43)"/><path class="cls-3" d="M168.32,30.52c-1.8-.32-3.61-0.58-5.43-0.76h0Q165.61,30,168.32,30.52Z" transform="translate(-33.57 -29.43)"/><path class="cls-3" d="M162.88,29.78h0q-3.23-.32-6.51-0.34h-2.06l-1.73.07-0.33,0c-0.78,0-1.55.1-2.32,0.18h0A69.67,69.67,0,0,1,162.88,29.78Z" transform="translate(-33.57 -29.43)"/><g class="cls-4"><path class="cls-1" d="M217.29,66.28L205.34,78.23h16.9A69.82,69.82,0,0,0,217.29,66.28Z" transform="translate(-33.57 -29.43)"/><path class="cls-1" d="M123.83,37.47l11.94,11.94V32.51A69.46,69.46,0,0,0,123.83,37.47Z" transform="translate(-33.57 -29.43)"/><path class="cls-1" d="M176.52,32.52V49.41l12-11.95A69.73,69.73,0,0,0,176.52,32.52Z" transform="translate(-33.57 -29.43)"/><path class="cls-1" d="M200.48,45.51L193.95,61.1l15.63-6.4A69.43,69.43,0,0,0,200.48,45.51Z" transform="translate(-33.57 -29.43)"/><path class="cls-1" d="M150,29.72l6.41,15.64,6.52-15.58A69.67,69.67,0,0,0,150,29.72Z" transform="translate(-33.57 -29.43)"/><path class="cls-1" d="M90.06,78.23H107L95,66.28A69.61,69.61,0,0,0,90.06,78.23Z" transform="translate(-33.57 -29.43)"/><path class="cls-1" d="M103.06,54.28l15.58,6.53-6.4-15.63A69.37,69.37,0,0,0,103.06,54.28Z" transform="translate(-33.57 -29.43)"/></g><g class="cls-5"><polygon class="cls-1" points="102.2 38.55 85.07 31.38 92.21 48.8 102.2 48.8 102.2 38.55"/><polygon class="cls-1" points="153.21 48.8 160.38 31.68 142.95 38.81 142.95 48.8 153.21 48.8"/><polygon class="cls-1" points="115.51 33.3 102.2 19.98 102.2 38.55 111.66 42.51 115.51 33.3"/><polygon class="cls-1" points="129.82 33.11 122.79 15.93 115.51 33.3 122.58 40.36 129.82 33.11"/><polygon class="cls-1" points="142.95 38.81 142.95 19.98 129.82 33.11 133.72 42.6 142.95 38.81"/><path class="cls-1" d="M196.94,86.63l8.41-8.4H186.78l-2.89,6.9Q190.55,85.74,196.94,86.63Z" transform="translate(-33.57 -29.43)"/><path class="cls-1" d="M128.6,85.11l-2.82-6.88H107l8.4,8.4Q121.83,85.73,128.6,85.11Z" transform="translate(-33.57 -29.43)"/></g><g class="cls-6"><path class="cls-1" d="M193.95,61.1l-7.17,17.12h18.56l11.94-11.94q-1.3-2.49-2.82-4.86l-0.11-.17c-0.22-.35-0.45-0.7-0.69-1l-0.55-.83L212.85,59q-1.55-2.22-3.27-4.31Z" transform="translate(-33.57 -29.43)"/><path class="cls-1" d="M135.77,49.41l13.31,13.31,7.28-17.36L150,29.72q-3.12.28-6.21,0.84l-0.82.16-1.11.22c-2,.43-4.06,1-6,1.57v16.9Z" transform="translate(-33.57 -29.43)"/><path class="cls-1" d="M118.64,60.8L135.77,68V49.41L123.83,37.47q-2.4,1.27-4.7,2.72l-0.37.23-0.84.55-1,.7-0.15.11q-2.32,1.61-4.49,3.4Z" transform="translate(-33.57 -29.43)"/><path class="cls-1" d="M156.36,45.36l7,17.18,13.13-13.13V32.52q-2.64-.82-5.36-1.43L170.88,31l-1.14-.23-1.06-.21-0.36-.06q-2.7-.48-5.44-0.74Z" transform="translate(-33.57 -29.43)"/><path class="cls-1" d="M176.52,49.41V68.24l17.42-7.14,6.53-15.59q-2.4-2-5-3.79l-0.92-.62-0.7-.47q-2.63-1.71-5.4-3.17Z" transform="translate(-33.57 -29.43)"/><path class="cls-1" d="M107,78.23h18.83L118.64,60.8l-15.58-6.53q-2,2.4-3.8,5L98.75,60c-0.19.29-.39,0.57-0.57,0.86q-1.71,2.63-3.17,5.4Z" transform="translate(-33.57 -29.43)"/><path class="cls-1" d="M225,92.2q-0.28-3-.81-6c-0.05-.29-0.11-0.58-0.17-0.87s-0.14-.71-0.21-1.06q-0.65-3.07-1.57-6.05h-16.9L197,86.6A233.77,233.77,0,0,1,225,92.2Z" transform="translate(-33.57 -29.43)"/><path class="cls-1" d="M115.36,86.63l-8.4-8.4H90.06q-0.84,2.7-1.45,5.47c0,0.05,0,.1,0,0.15-0.09.42-.17,0.84-0.25,1.26s-0.13.63-.19,0.94c0,0.16-.05.32-0.08,0.48q-0.47,2.66-.73,5.34l0,0.34A243.78,243.78,0,0,1,115.36,86.63Z" transform="translate(-33.57 -29.43)"/></g></svg>