<svg id="Layer_1" data-name="Layer 1" xmlns="http://www.w3.org/2000/svg" viewBox="0 0 209.3 22.6"><defs><style>.cls-1{fill:#0088ce;}</style></defs><title>logo_medicare</title><path d="M45,19.7c.2,0,.4-.1.6-.1H47c.3,0,.5,0,.6.1l4.2,10.2,4.3-10.2c.2,0,.3-.1.6-.1h1.4a1.27,1.27,0,0,1,.6.1l.8,16.4c-.2,0-.4.1-.6.1H57.7a.75.75,0,0,1-.5-.1l-.5-12.7-4,9.3c-.3,0-.6.1-.9.1a2.77,2.77,0,0,1-.9-.1L47,23.3l-.5,12.8c-.2,0-.3.1-.5.1H44.9a.75.75,0,0,1-.5-.1Z" transform="translate(-44.4 -19.3)"/><path d="M68.6,28.4a2.23,2.23,0,0,0-.7-1.9,3.68,3.68,0,0,0-2-.5,7.57,7.57,0,0,0-1.5.1l-1.4.3a3.42,3.42,0,0,1-.4-1.8,8.47,8.47,0,0,1,1.7-.4,10.87,10.87,0,0,1,1.8-.1,5.22,5.22,0,0,1,3.5,1,4.16,4.16,0,0,1,1.2,3.3v7.3c-.5.1-1.2.2-1.9.4a8.58,8.58,0,0,1-2.3.2,12.31,12.31,0,0,1-2-.2,3.48,3.48,0,0,1-1.5-.7,4,4,0,0,1-1-1.2,3.06,3.06,0,0,1-.3-1.7,3.06,3.06,0,0,1,.4-1.7,3.18,3.18,0,0,1,1.1-1.2,4.59,4.59,0,0,1,1.6-.7,5.84,5.84,0,0,1,1.9-.2H68a2,2,0,0,1,.8.1v-.4Zm0,2.2c-.2,0-.5-.1-.9-.1h-.9a4.47,4.47,0,0,0-2.2.5,1.75,1.75,0,0,0-.7,1.6,1.8,1.8,0,0,0,.3,1.1,1.7,1.7,0,0,0,.6.6c.3.1.5.2.8.3h.9a4.48,4.48,0,0,0,1.1-.1,3,3,0,0,0,1-.2V30.6Z" transform="translate(-44.4 -19.3)"/><path d="M79.9,34.6a3.87,3.87,0,0,1,2.9.9,2.87,2.87,0,0,1,.9,2.3,3.37,3.37,0,0,1-.5,1.7,5.35,5.35,0,0,1-1.3,1.3,6,6,0,0,1-2,.8,10.07,10.07,0,0,1-2.5.3,7,7,0,0,1-3.6-.7,2.56,2.56,0,0,1-1.2-2.3,3.37,3.37,0,0,1,.5-1.7A3.74,3.74,0,0,1,74.4,36a2.7,2.7,0,0,1-.8-.7,2,2,0,0,1-.3-1.1,2.6,2.6,0,0,1,.4-1.5,5.24,5.24,0,0,1,1-1.1,3.33,3.33,0,0,1-1.2-1.4,4.09,4.09,0,0,1-.2-3.5,3.81,3.81,0,0,1,.9-1.3,3.77,3.77,0,0,1,1.5-.9,6.45,6.45,0,0,1,2-.3,5.82,5.82,0,0,1,1.9.3,3.22,3.22,0,0,1,1.4.8,6.66,6.66,0,0,1,1.2-.6,4.68,4.68,0,0,1,1.7-.2,3.08,3.08,0,0,1,.1,1V26a.75.75,0,0,1-.1.5h-2a3,3,0,0,1,.4.8,3.4,3.4,0,0,1,.1,1,4.67,4.67,0,0,1-.3,1.7,4.12,4.12,0,0,1-1,1.3,3.61,3.61,0,0,1-1.5.8,5.82,5.82,0,0,1-1.9.3,8.81,8.81,0,0,1-1.7-.2,1.7,1.7,0,0,0-.6.6,1.33,1.33,0,0,0-.3.8.91.91,0,0,0,.3.7,1.88,1.88,0,0,0,1.3.3Zm-3.1,1.8a2.07,2.07,0,0,0-1.5.5,2.17,2.17,0,0,0-.5,1.4,1.88,1.88,0,0,0,.2.8,1,1,0,0,0,.6.5,9.43,9.43,0,0,0,.9.3,3.75,3.75,0,0,0,1.1.1,5.3,5.3,0,0,0,2.8-.6,1.68,1.68,0,0,0,1-1.5,1.05,1.05,0,0,0-.4-1,2.83,2.83,0,0,0-1.6-.4Zm1-5.7a2.14,2.14,0,0,0,1.8-.7,2.61,2.61,0,0,0,.6-1.8,2.79,2.79,0,0,0-.6-1.8,2.66,2.66,0,0,0-3.6,0A3,3,0,0,0,76,30,2.14,2.14,0,0,0,77.8,30.7Z" transform="translate(-44.4 -19.3)"/><path d="M87.1,30.8a3.79,3.79,0,0,0,1,2.8,3.93,3.93,0,0,0,2.8.9,8.15,8.15,0,0,0,3.1-.6,6.89,6.89,0,0,1,.3.8,3.08,3.08,0,0,1,.1,1,9.83,9.83,0,0,1-1.6.5,12.31,12.31,0,0,1-2,.2,7,7,0,0,1-2.7-.4,5,5,0,0,1-1.9-1.3,4.53,4.53,0,0,1-1.1-1.9,9.75,9.75,0,0,1,0-4.8,6.26,6.26,0,0,1,1-2,4.31,4.31,0,0,1,1.7-1.3,6,6,0,0,1,2.4-.5,4.64,4.64,0,0,1,2.1.4,4.18,4.18,0,0,1,1.5,1.1,4.61,4.61,0,0,1,.9,1.7,7.8,7.8,0,0,1,.3,2.2v1.3H87.1Zm5.8-1.7a5,5,0,0,0-.2-1.2,3.13,3.13,0,0,0-.5-1,2.7,2.7,0,0,0-.8-.7,2.13,2.13,0,0,0-1.2-.3,2.86,2.86,0,0,0-2.1.8,4,4,0,0,0-.9,2.3h5.7Z" transform="translate(-44.4 -19.3)"/><path d="M97.4,19.4c.2,0,.4-.1.6-.1h1.2a1.27,1.27,0,0,1,.6.1V32.6a2.79,2.79,0,0,0,.1,1l.3.6a2.19,2.19,0,0,0,.5.3c.2,0,.4.1.6.1h.5c.2,0,.3,0,.4-.1a8.81,8.81,0,0,1,.2,1.7,2,2,0,0,1-.8.1h-.8a5,5,0,0,1-1.2-.2,3.13,3.13,0,0,1-1-.5,2.55,2.55,0,0,1-.7-1,3.34,3.34,0,0,1-.3-1.5V19.4Z" transform="translate(-44.4 -19.3)"/><path d="M103.6,19.4c.2,0,.4-.1.6-.1h1.2a1.27,1.27,0,0,1,.6.1V32.6a2.79,2.79,0,0,0,.1,1l.3.6a2.19,2.19,0,0,0,.5.3c.2,0,.4.1.6.1h.5c.2,0,.3,0,.4-.1a8.81,8.81,0,0,1,.2,1.7,2,2,0,0,1-.8.1H107a5,5,0,0,1-1.2-.2,3.13,3.13,0,0,1-1-.5,2.55,2.55,0,0,1-.7-1,3.34,3.34,0,0,1-.3-1.5V19.4Z" transform="translate(-44.4 -19.3)"/><path d="M116.1,28.4a2.23,2.23,0,0,0-.7-1.9,3.68,3.68,0,0,0-2-.5,7.57,7.57,0,0,0-1.5.1l-1.4.3a3.42,3.42,0,0,1-.4-1.8,8.47,8.47,0,0,1,1.7-.4,10.87,10.87,0,0,1,1.8-.1,5.22,5.22,0,0,1,3.5,1,4.16,4.16,0,0,1,1.2,3.3v7.3c-.5.1-1.2.2-1.9.4a8.58,8.58,0,0,1-2.3.2,12.31,12.31,0,0,1-2-.2,3.48,3.48,0,0,1-1.5-.7,4,4,0,0,1-1-1.2,3.06,3.06,0,0,1-.3-1.7,3.06,3.06,0,0,1,.4-1.7,3.18,3.18,0,0,1,1.1-1.2,4.59,4.59,0,0,1,1.6-.7,5.84,5.84,0,0,1,1.9-.2h1.2a2,2,0,0,1,.8.1v-.4Zm0,2.2c-.2,0-.5-.1-.9-.1h-.9a4.47,4.47,0,0,0-2.2.5,1.75,1.75,0,0,0-.7,1.6,1.8,1.8,0,0,0,.3,1.1,1.7,1.7,0,0,0,.6.6c.3.1.5.2.8.3h.9a4.48,4.48,0,0,0,1.1-.1,3,3,0,0,0,1-.2Z" transform="translate(-44.4 -19.3)"/><path d="M121.1,24.4c.2,0,.3-.1.5-.1h1a1.09,1.09,0,0,1,.5.1c0,.2.1.5.1.9s.1.7.1,1a4.17,4.17,0,0,1,.6-.8,2.7,2.7,0,0,1,.8-.7,4.67,4.67,0,0,1,1-.5,4.44,4.44,0,0,1,1.3-.2,4.08,4.08,0,0,1,3,1.1,5.5,5.5,0,0,1,1,3.4V36c-.2,0-.4.1-.6.1h-1.2a1.27,1.27,0,0,1-.6-.1V29.2a4.77,4.77,0,0,0-.5-2.4,1.82,1.82,0,0,0-1.6-.8,5,5,0,0,0-1.2.2,3.59,3.59,0,0,0-1,.7,3.46,3.46,0,0,0-.7,1.2,4.84,4.84,0,0,0-.3,1.8v5.9c-.2,0-.4.1-.6.1h-1.2a1.27,1.27,0,0,1-.6-.1V24.4Z" transform="translate(-44.4 -19.3)"/><path d="M138.7,19.7c.3,0,.6-.1.9-.1s.5-.1.8-.1a2.2,2.2,0,0,0,.8-.1h1a17.85,17.85,0,0,1,2.3.2,6,6,0,0,1,2,.8,4,4,0,0,1,1.4,1.5,4.5,4.5,0,0,1,.6,2.4,4.15,4.15,0,0,1-.3,1.6,3.53,3.53,0,0,1-.8,1.3,4.74,4.74,0,0,1-1,1c-.4.3-.8.5-1.1.7l-.3.1,4.8,6.9c-.4,0-.9.1-1.4.1a4.87,4.87,0,0,1-1.2-.1L142,28.3v-.1h.2c.4-.1.8-.3,1.3-.4a3.29,3.29,0,0,0,1.3-.7,5.24,5.24,0,0,0,1-1.1,2.41,2.41,0,0,0,.4-1.5,2.72,2.72,0,0,0-1-2.4,4,4,0,0,0-2.6-.8h-.7a1.7,1.7,0,0,0-.7.1V36h-1.8a1.27,1.27,0,0,1-.6-.1V19.7Z" transform="translate(-44.4 -19.3)"/><path d="M153.3,30l-2.8-5.6a4.12,4.12,0,0,1,1.2-.1h.6a1.27,1.27,0,0,1,.6.1l2.4,5.6-2.9,6c-.2,0-.4.1-.6.1h-1.2a1.27,1.27,0,0,1-.6-.1Zm2.3.1,2.4-5.6c.2,0,.4-.1.6-.1h.6a3.75,3.75,0,0,1,1.1.1l-2.7,5.6,3.2,6.1c-.2,0-.4.1-.6.1h-.6a3.75,3.75,0,0,1-1.1-.1Z" transform="translate(-44.4 -19.3)"/><path class="cls-1" d="M168.3,19.7h1.9l4.6,10.9,4.5-10.9h1.9l.8,16.4h-1.6l-.6-13.9-4.5,10.5h-1.2l-4.5-10.6-.7,14h-1.6Z" transform="translate(-44.4 -19.3)"/><path class="cls-1" d="M186.5,30.5a4.78,4.78,0,0,0,1.1,3.4,4.42,4.42,0,0,0,3.2,1.1,8.08,8.08,0,0,0,1.6-.1,5.73,5.73,0,0,0,1.4-.4c.1.2.1.4.2.6s.1.5.1.7c-.4.2-1,.3-1.5.5a11.08,11.08,0,0,1-1.9.2,6.77,6.77,0,0,1-2.6-.4,5.67,5.67,0,0,1-1.8-1.2,4.35,4.35,0,0,1-1-1.9,8.75,8.75,0,0,1-.3-2.4,9.86,9.86,0,0,1,.3-2.4,6.11,6.11,0,0,1,.9-2,4,4,0,0,1,1.6-1.3,5.21,5.21,0,0,1,2.3-.5,4.51,4.51,0,0,1,3.5,1.5,4.61,4.61,0,0,1,.9,1.7,7.11,7.11,0,0,1,.3,2.1v1h-8.3Zm6.8-1.2a6.75,6.75,0,0,0-.2-1.4,2.28,2.28,0,0,0-.6-1.2,3.92,3.92,0,0,0-1-.8,3.34,3.34,0,0,0-1.5-.3,3,3,0,0,0-2.5,1,5.51,5.51,0,0,0-1.1,2.8h6.9Z" transform="translate(-44.4 -19.3)"/><path class="cls-1" d="M205.4,19.4H207V35.9a8,8,0,0,1-1.8.4,15,15,0,0,1-2.2.2,8.52,8.52,0,0,1-2.3-.3,4.35,4.35,0,0,1-1.9-1,5.94,5.94,0,0,1-1.3-1.8,7.39,7.39,0,0,1-.5-2.8,7.66,7.66,0,0,1,.4-2.7,6.66,6.66,0,0,1,1.2-2,4.39,4.39,0,0,1,1.8-1.2,5.87,5.87,0,0,1,2.3-.4,7.57,7.57,0,0,1,1.5.1,10.38,10.38,0,0,1,1.2.3Zm0,6.6a10.38,10.38,0,0,0-1.2-.3,7.57,7.57,0,0,0-1.5-.1,4.06,4.06,0,0,0-1.9.4,3.25,3.25,0,0,0-1.3,1,6,6,0,0,0-.8,1.6,6.45,6.45,0,0,0-.3,2,4.62,4.62,0,0,0,1.1,3.4,4.42,4.42,0,0,0,3.2,1.1,6.15,6.15,0,0,0,1.4-.1c.4-.1.8-.1,1.1-.2V26Z" transform="translate(-44.4 -19.3)"/><path class="cls-1" d="M211,25.8h-1.5V24.5h3V36.1h-1.6V25.8Zm-.7-4.2v-2h2v2h-1.5C210.6,21.6,210.4,21.7,210.3,21.6Z" transform="translate(-44.4 -19.3)"/><path class="cls-1" d="M223.6,34.6c.1.2.1.4.2.6a1.76,1.76,0,0,1,.1.6,5,5,0,0,1-1.3.3,8.08,8.08,0,0,1-1.6.1,5.44,5.44,0,0,1-4.3-1.6,6.11,6.11,0,0,1-1.5-4.5,6.05,6.05,0,0,1,.4-2.4,4.53,4.53,0,0,1,1.1-1.9,5.94,5.94,0,0,1,1.8-1.3,6,6,0,0,1,2.4-.5,9.7,9.7,0,0,1,1.7.1,6.81,6.81,0,0,1,1.2.3,2,2,0,0,1-.1.7c-.1.3-.1.5-.2.6-.3-.1-.7-.2-1.1-.3a7.57,7.57,0,0,0-1.5-.1,3.42,3.42,0,0,0-1.8.4,4.12,4.12,0,0,0-1.3,1,5.3,5.3,0,0,0-.8,1.5,5.82,5.82,0,0,0-.3,1.9,4.89,4.89,0,0,0,1.2,3.6,4.17,4.17,0,0,0,3.2,1.1,5.28,5.28,0,0,0,1.3-.1A1.23,1.23,0,0,0,223.6,34.6Z" transform="translate(-44.4 -19.3)"/><path class="cls-1" d="M232.7,28.4a2.92,2.92,0,0,0-.7-2.2,2.82,2.82,0,0,0-2.1-.7,9.15,9.15,0,0,0-1.7.1c-.5.1-.9.2-1.3.3-.1-.1-.1-.3-.2-.6a2,2,0,0,1-.1-.7q.6-.15,1.5-.3a10.87,10.87,0,0,1,1.8-.1,4.5,4.5,0,0,1,3.3,1,3.92,3.92,0,0,1,1.1,3v7.7c-.5.1-1.2.2-1.9.3a18,18,0,0,1-2.2.2,6.18,6.18,0,0,1-3.3-.8,3.16,3.16,0,0,1-1.2-2.7,2.93,2.93,0,0,1,.4-1.6,4,4,0,0,1,1-1.2,3.48,3.48,0,0,1,1.5-.7,5.82,5.82,0,0,1,1.9-.3,6.15,6.15,0,0,1,1.4.1c.4,0,.7.1,1,.1v-.9Zm0,2.1c-.3,0-.6-.1-1-.1s-.8-.1-1.1-.1a4.76,4.76,0,0,0-2.6.6,2,2,0,0,0-.9,1.8,2.13,2.13,0,0,0,.3,1.2,2.34,2.34,0,0,0,.7.7,1.69,1.69,0,0,0,1,.3,4.1,4.1,0,0,0,1.1.1,5.28,5.28,0,0,0,1.3-.1,5,5,0,0,0,1.2-.2Z" transform="translate(-44.4 -19.3)"/><path class="cls-1" d="M237.4,24.5h1.3c0,.3.1.6.1,1v1a3.48,3.48,0,0,1,1.3-1.4,3.59,3.59,0,0,1,2.2-.6h.5c0,.3.1.5.1.7a1.7,1.7,0,0,1-.1.7h-.5a3.17,3.17,0,0,0-2.5,1,4.83,4.83,0,0,0-.9,3.3v6h-1.6V24.5Z" transform="translate(-44.4 -19.3)"/><path class="cls-1" d="M245.4,30.5a4.78,4.78,0,0,0,1.1,3.4,4.42,4.42,0,0,0,3.2,1.1,8.08,8.08,0,0,0,1.6-.1,5.73,5.73,0,0,0,1.4-.4c.1.2.1.4.2.6s.1.5.1.7c-.4.2-1,.3-1.5.5a11.08,11.08,0,0,1-1.9.2,6.77,6.77,0,0,1-2.6-.4,5.67,5.67,0,0,1-1.8-1.2,4.35,4.35,0,0,1-1-1.9,8.75,8.75,0,0,1-.3-2.4,9.86,9.86,0,0,1,.3-2.4,6.11,6.11,0,0,1,.9-2,4,4,0,0,1,1.6-1.3,5.21,5.21,0,0,1,2.3-.5,4.51,4.51,0,0,1,3.5,1.5,4.61,4.61,0,0,1,.9,1.7,7.11,7.11,0,0,1,.3,2.1v1h-8.3Zm6.9-1.2a6.75,6.75,0,0,0-.2-1.4,2.28,2.28,0,0,0-.6-1.2,3.92,3.92,0,0,0-1-.8,3.34,3.34,0,0,0-1.5-.3,3,3,0,0,0-2.5,1,5.51,5.51,0,0,0-1.1,2.8h6.9Z" transform="translate(-44.4 -19.3)"/></svg>