<svg xmlns="http://www.w3.org/2000/svg" viewBox="0 0 24 24">
  <path fill="#D0011B" fill-rule="evenodd" d="M14.6600985,0.502617801 C14.6600985,2.2617889 14.5123167,3.94763592 14.2167488,5.56020942 C13.9211808,7.17278293 13.6157651,8.83768775 13.3004926,10.5549738 C14.7192189,9.7172733 16.1182197,8.90052754 17.4975369,8.10471204 C18.8768542,7.30889654 20.3743762,6.61780398 21.9901478,6.03141361 L22.3448276,5.90575916 L24,11.1832461 L23.5270936,11.3717277 C21.950731,12.0000031 20.3743921,12.408376 18.7980296,12.5968586 C17.221667,12.7853413 15.6059196,12.9424077 13.9507389,13.0680628 C15.251238,14.2408436 16.4729007,15.3821934 17.6157635,16.4921466 C18.7586264,17.6020998 19.8226552,18.890045 20.8078818,20.3560209 L21.1034483,20.7958115 L16.7881773,24 L16.5517241,23.6230366 C15.6059066,22.1151757 14.7881808,20.6178085 14.0985222,19.1308901 C13.4088635,17.6439716 12.7093632,16.10472 12,14.513089 C11.2906368,16.10472 10.5911365,17.6439716 9.90147783,19.1308901 C9.21181921,20.6178085 8.3940934,22.1151757 7.44827586,23.6230366 L7.21182266,24 L2.89655172,20.7958115 L3.19211823,20.3560209 C4.17734483,18.890045 5.2413736,17.6020998 6.38423645,16.4921466 C7.52709931,15.3821934 8.74876197,14.2408436 10.0492611,13.0680628 C8.39408039,12.9424077 6.778333,12.7853413 5.20197044,12.5968586 C3.62560788,12.408376 2.04926897,12.0000031 0.472906404,11.3717277 L3.55271368e-15,11.1832461 L1.65517241,5.90575916 L2.00985222,6.03141361 C3.62562384,6.61780398 5.12314581,7.30889654 6.50246305,8.10471204 C7.8817803,8.90052754 9.28078108,9.7172733 10.6995074,10.5549738 C10.3842349,8.83768775 10.0788192,7.17278293 9.78325123,5.56020942 C9.48768325,3.94763592 9.33990148,2.2617889 9.33990148,0.502617801 L9.33990148,-1.24344979e-14 L14.6600985,-1.24344979e-14 L14.6600985,0.502617801 Z"/>
</svg>
